<svg xmlns="http://www.w3.org/2000/svg" viewBox="0 0 102.23 102.24"><title>search</title><path d="M277.22,337a7.37,7.37,0,0,1-2.42,5.5,7.87,7.87,0,0,1-5.61,2.31,7.16,7.16,0,0,1-5.39-2.31l-21-21a42.22,42.22,0,0,1-24.54,7.6,42.66,42.66,0,0,1-16.83-3.41,42.14,42.14,0,0,1-13.76-9.25,46.4,46.4,0,0,1-9.24-13.75A39.78,39.78,0,0,1,175,285.79a43.91,43.91,0,0,1,12.65-30.59A40.79,40.79,0,0,1,201.41,246a47.2,47.2,0,0,1,16.83-3.41A37.22,37.22,0,0,1,235.08,246a51.35,51.35,0,0,1,13.75,9.24,38.31,38.31,0,0,1,9.25,13.87,46.45,46.45,0,0,1,3.41,16.72,42.24,42.24,0,0,1-7.59,24.54l21,21A7.64,7.64,0,0,1,277.22,337Zm-31.47-51.17a26.4,26.4,0,0,0-8-19.36,26.94,26.94,0,0,0-19.48-8.15,25.77,25.77,0,0,0-19.47,8.15,26.84,26.84,0,0,0-8,19.36,27.24,27.24,0,0,0,8,19.48,24.93,24.93,0,0,0,19.47,8,28.39,28.39,0,0,0,19.48-8A25.87,25.87,0,0,0,245.75,285.79Z" transform="translate(-175 -242.54)" fill="#1d1d1b"/></svg>